<?xml version="1.0" standalone="no"?>
<!DOCTYPE svg PUBLIC "-//W3C//DTD SVG 20010904//EN"
 "http://www.w3.org/TR/2001/REC-SVG-20010904/DTD/svg10.dtd">
<svg version="1.0" xmlns="http://www.w3.org/2000/svg"
 width="464.000000pt" height="464.000000pt" viewBox="0 0 464.000000 464.000000"
 preserveAspectRatio="xMidYMid meet">
<metadata>
Created by potrace 1.14, written by Peter Selinger 2001-2017
</metadata>
<g transform="translate(0.000000,464.000000) scale(0.100000,-0.100000)"
fill="#000000" stroke="none">
<path d="M3099 3745 c-2 -1 -31 -6 -64 -10 -33 -3 -109 -15 -170 -25 -370 -64
-401 -69 -438 -70 -17 0 -17 -2 -1 -32 50 -99 246 -354 290 -381 32 -19 11
-26 -23 -8 -43 21 -138 51 -164 51 -10 0 -46 -24 -81 -53 -35 -30 -108 -84
-162 -120 l-100 -67 -40 24 c-23 13 -57 33 -76 44 -19 11 -53 30 -75 42 -42
23 -105 71 -139 105 -20 19 -20 19 -28 -15 -3 -19 -10 -84 -14 -145 -3 -60 -8
-111 -9 -113 -2 -2 -20 4 -41 13 -48 21 -175 65 -186 65 -4 0 -8 -11 -8 -25 0
-21 -27 -114 -35 -123 -2 -2 -16 3 -32 11 -37 20 -74 33 -148 51 -64 16 -70
17 -209 41 -83 15 -139 33 -196 62 -13 7 -25 11 -26 10 -2 -1 2 -23 7 -47 6
-25 12 -99 14 -165 2 -66 4 -147 5 -180 3 -76 27 -188 51 -239 20 -42 24 -60
11 -52 -13 8 -130 17 -221 18 -114 0 -184 -7 -471 -46 -58 -8 -143 -18 -189
-22 l-84 -7 69 -66 c329 -314 604 -453 1019 -515 17 -2 44 -5 60 -5 29 -1 27
-3 -30 -40 -122 -78 -223 -198 -312 -371 -53 -104 -60 -136 -25 -126 19 6 202
13 497 21 185 5 268 10 350 20 22 3 60 7 85 10 177 22 391 101 514 189 28 19
52 34 53 32 2 -2 -7 -20 -21 -40 -13 -20 -29 -57 -34 -83 -10 -45 -13 -178 -5
-199 3 -7 20 -5 56 7 29 10 64 20 77 23 14 3 48 12 77 20 l52 14 123 -121 123
-121 123 -42 c67 -23 125 -44 129 -48 18 -17 49 0 107 61 55 59 62 71 56 93
-5 14 -25 71 -45 128 -20 57 -35 105 -33 107 1 2 82 86 178 186 96 101 234
244 306 319 73 74 146 151 164 170 25 27 369 385 438 456 7 8 25 14 38 14 25
0 25 0 8 30 -10 16 -28 41 -41 54 -13 14 -23 33 -23 42 0 13 -8 15 -42 12 -38
-4 -48 0 -80 31 -21 19 -38 37 -38 41 0 4 24 10 52 13 48 6 55 4 76 -18 22
-24 82 -36 82 -17 0 5 16 9 36 10 20 1 38 3 40 4 2 3 28 155 40 238 3 19 7 46
10 60 11 58 13 69 18 106 4 22 9 53 11 69 3 17 7 42 9 58 10 58 15 64 84 85
37 12 79 24 94 28 37 8 46 21 51 79 3 28 8 62 12 77 4 15 3 33 -2 41 -14 26
-226 169 -268 182 -22 7 -67 15 -100 19 -77 9 -103 13 -140 20 -93 19 -142 18
-201 -2 -32 -11 -98 -32 -146 -46 l-86 -26 -74 39 c-117 63 -209 84 -374 87
-78 2 -144 1 -145 -1z m-334 -565 c10 -11 16 -20 13 -20 -3 0 -13 9 -23 20
-10 11 -16 20 -13 20 3 0 13 -9 23 -20z m130 -83 c100 -51 141 -60 295 -63
123 -2 170 2 310 26 91 16 185 33 210 39 78 18 75 23 56 -104 -3 -19 -11 -20
-277 -21 -301 0 -389 -6 -494 -33 l-70 -17 -41 85 c-23 47 -54 98 -68 113 -34
35 -33 44 2 20 15 -10 50 -30 77 -45z m857 -192 c-4 -30 -27 -59 -137 -173
-73 -75 -158 -164 -189 -197 l-57 -60 22 55 c12 30 23 62 26 70 2 8 26 30 54
49 55 38 207 193 246 252 32 48 40 49 35 4z"/>
<path d="M682 3548 c28 -157 123 -256 272 -284 17 -3 119 -7 226 -8 129 -2
203 -7 218 -15 22 -11 22 -11 16 16 -10 42 -49 115 -79 146 -73 77 -180 115
-400 143 -93 12 -220 36 -236 45 -27 14 -27 13 -17 -43z"/>
<path d="M1770 3486 c-25 -7 -58 -20 -75 -29 l-30 -15 27 -11 c14 -5 84 -49
154 -97 165 -111 219 -140 292 -155 75 -16 172 0 250 40 l53 27 -48 31 c-222
142 -296 180 -400 207 -71 19 -160 19 -223 2z"/>
<path d="M310 2860 c-63 -10 -158 -17 -211 -16 l-96 1 16 -35 c55 -123 145
-207 260 -245 55 -18 98 -20 411 -16 69 1 140 -3 158 -8 31 -9 33 -9 27 12
-14 49 -76 165 -110 205 -39 45 -101 86 -157 103 -55 18 -176 17 -298 -1z"/>
<path d="M4127 2004 c-1 -1 -29 -4 -61 -8 -72 -7 -139 -38 -165 -75 -11 -15
-34 -62 -50 -105 -17 -42 -38 -88 -47 -101 -15 -23 -14 -24 13 -27 56 -6 209
12 266 31 76 27 136 71 222 167 39 42 76 83 83 91 11 11 7 13 -25 14 -21 0
-56 2 -78 5 -43 5 -155 11 -158 8z"/>
</g>
</svg>
