<?xml version="1.0" encoding="UTF-8" standalone="no"?>
<!-- Created with Inkscape (http://www.inkscape.org/) -->

<svg
   width="126.09887mm"
   height="75.699799mm"
   viewBox="0 0 126.09887 75.699799"
   version="1.1"
   id="svg1"
   xml:space="preserve"
   inkscape:version="1.3 (0e150ed6c4, 2023-07-21)"
   sodipodi:docname="ko.svg"
   inkscape:export-filename="drawing2.png"
   inkscape:export-xdpi="96"
   inkscape:export-ydpi="96"
   xmlns:inkscape="http://www.inkscape.org/namespaces/inkscape"
   xmlns:sodipodi="http://sodipodi.sourceforge.net/DTD/sodipodi-0.dtd"
   xmlns="http://www.w3.org/2000/svg"
   xmlns:svg="http://www.w3.org/2000/svg"><sodipodi:namedview
     id="namedview1"
     pagecolor="#ffffff"
     bordercolor="#000000"
     borderopacity="0.25"
     inkscape:showpageshadow="2"
     inkscape:pageopacity="0.0"
     inkscape:pagecheckerboard="0"
     inkscape:deskcolor="#d1d1d1"
     inkscape:document-units="mm"
     inkscape:zoom="0.60648262"
     inkscape:cx="178.076"
     inkscape:cy="88.213574"
     inkscape:window-width="1920"
     inkscape:window-height="991"
     inkscape:window-x="-9"
     inkscape:window-y="-9"
     inkscape:window-maximized="1"
     inkscape:current-layer="layer3"
     inkscape:clip-to-page="false" /><defs
     id="defs1"><linearGradient
       id="swatch153"
       inkscape:swatch="solid"><stop
         style="stop-color:#f9f9f9;stop-opacity:1;"
         offset="0"
         id="stop154" /></linearGradient></defs><g
     inkscape:groupmode="layer"
     id="layer3"
     inkscape:label="Layer 2"
     style="display:inline;fill:#ff0000"
     transform="translate(-47.216756,-105.98179)"><path
       id="path53"
       style="color:#000000;-inkscape-font-specification:'AIRBORNE GP Bold';display:inline;fill:#000000;-inkscape-stroke:none;paint-order:markers stroke fill"
       d="m 136.34,105.98216 5.2e-4,5.2e-4 c -6.64369,-0.0508 -13.86109,2.08831 -22.05086,3.01325 12.03781,20.53923 20.41132,16.65119 36.41225,13.87512 l -0.61495,3.75843 c -7.0443,0.10135 -14.91034,-0.99553 -22.19761,1.2516 -1.45577,-4.05064 -3.42992,-8.24674 -10.85567,-9.26816 -2.70345,2.69484 -5.84587,4.61792 -8.62686,6.43164 -2.45923,-1.59237 -5.14055,-2.88255 -7.48585,-4.51032 l -1.147732,-1.08623 c -0.589872,-0.61848 -0.787841,-0.66655 -0.785998,-0.42788 -0.123904,-0.11077 -0.249188,-0.2203 -0.369487,-0.33487 l 0.380855,0.4222 c 0.0068,0.0592 0.0062,0.10795 0.02274,0.18087 -0.0073,-0.01 -0.01382,-0.0196 -0.02119,-0.0295 -0.354412,2.93505 -0.500904,5.40248 -0.513147,7.50755 -1.867809,-0.88981 -3.972158,-1.68728 -6.432166,-2.34766 0.346991,1.04615 -0.17366,2.49971 -0.84956,4.12843 -3.623844,-2.23578 -9.244456,-2.41687 -13.59762,-3.56412 -0.914991,-0.44522 -1.823364,-0.90408 -2.716113,-1.39423 1.613687,4.59164 -0.130863,10.41169 1.802474,15.8719 H 64.847721 62.33418 56.095801 55.876693 47.216756 v 3.00033 13.26534 h 8.659937 0.219108 8.75192 v -0.0134 l 4.110344,-0.003 c 3.686017,1.55648 7.446982,2.47756 11.475785,3.00085 v 1.42937 0.48835 c -3.356813,2.45994 -6.303523,6.46524 -8.808765,12.48812 2.832588,-0.27094 5.803328,-0.35633 8.808765,-0.41909 v 0.69659 h 8.851139 l 0.0026,-0.93689 c 2.375747,-0.10669 4.729158,-0.286 7.029029,-0.5948 v 1.59216 h 8.865092 v -0.0879 h 5.27875 c 0.0216,0.44145 0.0418,0.88027 0.0858,1.37149 1.49399,-0.57567 3.02407,-0.98405 4.5403,-1.37149 h 2.27066 0.80202 c 0.54096,0.51876 1.07231,1.01465 2.18901,2.12235 4.7492,4.71087 2.54754,3.26159 7.50393,4.93871 4.95644,1.67718 3.3193,1.82741 5.57951,-0.51159 2.26021,-2.33905 2.14704,-0.67762 0.38706,-5.66271 -0.16369,-0.46362 -0.18138,-0.54837 -0.29663,-0.89865 h 0.0439 l 2.19366,-3.17552 2.16421,3.18741 h 10.32805 l -0.0351,-0.0506 3.59151,0.0155 v -1.94924 l 1.27176,1.91771 10.24227,0.0238 -4.81469,-7.30653 c 0.37447,-0.52161 0.80864,-1.00162 0.94154,-1.69188 l 0.002,-0.002 v -0.002 c 0.24521,-1.28139 0.0977,-2.75412 -0.56637,-3.97495 -0.1053,-0.19355 -0.2325,-0.37725 -0.35967,-0.56069 3.91248,-1.29749 5.2927,-4.05023 8.39587,-7.13858 -2.50836,-0.29251 -4.53867,-0.42885 -6.19239,-0.43098 -0.5358,-6.9e-4 -1.0275,0.0145 -1.48776,0.0413 0.43658,-0.80111 0.71151,-1.68608 0.7493,-2.54972 l 0.004,-0.0822 v -0.0837 c -0.007,-0.6326 -0.21827,-1.29744 -0.50798,-1.91823 h 0.41806 v -4.55528 l 2.06086,-2.14922 c 0.6396,0.012 1.33439,-0.0604 1.44177,0.10232 l -0.92863,-1.40715 c -0.0776,-0.19389 -0.22237,-0.41821 -0.44803,-0.67903 l -0.0424,-0.0641 c -0.003,0.002 -0.005,0.005 -0.008,0.007 -0.20484,-0.22965 -0.47083,-0.48648 -0.80616,-0.77463 l -0.108,-1.02423 c -1.26193,0.0535 -1.80922,0.2417 -1.93993,0.49765 l -2.38229,-2.28462 c 0.54815,-0.131 1.05467,-0.25758 1.34514,-0.30024 0.38584,0.0915 0.7904,0.10887 1.0387,-0.22065 l 0.67903,0.1173 c 0.18938,0.21359 0.38405,0.40608 0.58756,0.56534 -0.62814,0.81091 2.02192,0.61582 2.15284,0.90847 l -0.26407,-0.58963 1.82625,-0.14056 0.40979,0.0708 2.58847,-15.82642 c 0.43137,-0.14837 0.94526,-0.32094 1.60197,-0.52555 4.99563,-1.55644 3.75948,-0.47247 4.21318,-3.69332 0.45369,-3.22083 1.3382,-1.80999 -3.01584,-4.80849 -4.354,-2.9985 -1.8663,-2.08711 -8.47751,-3.10679 -6.61122,-1.01966 -3.97797,-1.14149 -8.97362,0.41497 -3.06396,0.95461 -3.7811,0.91929 -3.98425,1.48983 -3.87876,-2.70591 -7.88797,-3.63351 -12.13104,-3.66593 z m -67.83152,3.89847 c 1.037187,13.55643 14.790583,7.37106 19.690271,9.81284 -2.189448,-10.11239 -14.098197,-7.02599 -19.690271,-9.81284 z m 31.85697,2.69958 c -1.801576,-0.002 -3.678522,0.42848 -5.638415,1.48311 7.177495,3.36239 11.297305,11.0018 20.717595,5.05964 l -0.71365,-0.0512 c -4.23599,-2.59182 -8.9608,-6.48622 -14.36553,-6.49159 z m 49.66725,14.38155 -0.39326,2.40502 -7.01714,7.31738 -1.71824,5.2e-4 c 0.0967,-0.2438 0.19837,-0.46321 0.29404,-0.71158 2.82377,-1.78913 5.69515,-4.67884 8.8346,-9.01134 z m -86.688246,2.1239 c -4.260286,0.0437 -8.867363,1.71731 -12.697933,0.68471 5.086247,12.64339 15.433657,6.20767 23.316923,8.40931 -2.444771,-7.55156 -6.358711,-9.13776 -10.61899,-9.09402 z m 80.185806,10.59832 -1.33015,2.1084 -2.85926,0.007 1.28829,-2.11511 z m -56.83736,2.67374 6.897253,10.36939 h -3.141927 l -3.734656,-5.49837 -3.789433,5.49165 -3.135209,0.007 z m 64.1134,0 h 6.0973 v 2.26653 h -6.18773 c -1.4699,-0.009 -2.21139,0.50067 -2.22519,1.52962 0,0.9141 0.75103,1.34815 2.25309,1.30225 h 1.21956 l -0.007,0.007 h 2.19108 c 1.88331,0.23427 2.83202,0.93919 2.84582,2.11512 -0.0919,2.09917 -1.84887,3.14916 -5.271,3.14916 h -5.98103 l 0.007,-2.22571 2.74919,-0.0145 v 0.0145 h 3.33468 c 1.46989,0.009 2.20503,-0.51445 2.20503,-1.57096 0,-0.91409 -0.75103,-1.34814 -2.25309,-1.30224 h -1.21957 l 0.007,-0.007 h -2.19108 c -1.88331,-0.23427 -2.83151,-0.93919 -2.84531,-2.11512 0.0919,-2.09916 1.84888,-3.14864 5.271,-3.14864 z m -17.70125,0.0687 2.90112,0.007 v 10.26604 l -8.18555,-5.19503 -0.0207,5.22242 h -2.87321 v -10.26604 l 8.17831,5.22966 z m -82.888994,0.0346 h 2.880445 v 3.81011 h 5.780525 v -3.81011 h 2.969845 v 10.26604 h -2.969845 v -3.87883 h -5.780525 v 3.87883 h -2.880445 z m 15.117424,0 h 10.769368 v 2.12235 h -7.889441 v 1.86035 h 6.607866 v 2.20452 h -6.607866 l -0.0067,1.90169 h 7.875489 l 0.01344,2.15646 -10.762134,0.007 z m 45.08924,0 h 10.76937 v 2.12235 h -7.88945 v 1.86035 h 6.60787 v 2.20452 h -6.60787 l -0.007,1.90169 h 7.87549 l 0.014,2.15646 -10.76265,0.007 z m -15.964403,0.0827 3.134692,0.007 3.789951,5.49166 3.73414,-5.49838 h 3.14193 l -6.89674,10.36991 z m 58.606243,13.13357 c -0.17976,0.39979 -0.35744,0.82413 -0.52503,1.26917 l -3.01997,-0.12609 0.006,0.14056 -2.94814,0.006 1.18959,-1.24075 h 3.95583 c 0.46001,0 0.90498,-0.0179 1.34204,-0.0491 z m -0.40514,4.27726 c 0.98295,0.0413 1.74781,0.21359 2.29443,0.51676 0.55121,0.29858 0.98317,0.73479 1.29553,1.30897 0.31236,0.57418 0.39716,1.23351 0.25476,1.97765 -0.14239,0.73955 -0.77629,1.33475 -1.90169,1.78491 l 3.14193,4.76766 -3.05201,-0.007 -3.6866,-5.56039 1.757,-0.0207 c 0.60174,-0.18374 0.90966,-0.63849 0.92346,-1.36426 0.0138,-0.73036 -0.47545,-1.11361 -1.46761,-1.15031 l -3.41065,0.0207 v 8.08891 l -2.87321,-0.0134 0.0274,-10.33528 6.69727,-0.014 z m -16.9013,0.0419 6.89674,10.36991 h -3.14193 l -3.73414,-5.49838 -3.78995,5.49114 -3.13469,0.007 z m -29.66951,0.10335 h 2.87321 v 8.09615 l 5.39502,-0.0207 v 2.19109 h -8.26823 z m 11.38277,0 h 2.87321 v 8.09615 l 5.39502,-0.0207 v 2.19109 h -8.26823 z m -34.037713,0.0413 h 6.043042 c 3.426703,0.009 5.183716,1.06341 5.270996,3.1626 -0.08268,1.29994 -1.02929,2.00487 -2.839103,2.11511 h -2.135787 c 1.345877,-0.11024 2.018998,-0.59945 2.018998,-1.46761 0,-1.05649 -0.735137,-1.57996 -2.205033,-1.57096 h -3.272669 l -0.02067,8.01346 h -2.859774 z m 15.882235,0.0481 h 2.865978 v 10.26656 h -2.865978 z m 43.645398,0.5488 -0.0119,4.65243 -1.82211,-2.73988 z" /></g><g
     inkscape:groupmode="layer"
     id="g8"
     inkscape:label="Layer 3 copy"
     style="display:inline"
     transform="translate(-47.216756,-105.98179)" /></svg>
